<svg xmlns="http://www.w3.org/2000/svg" viewBox="0 0 409.6 409.6"><defs><style>.cls-1{fill:#ee494a;}.cls-2{fill:#f5f5f5;}.cls-3{fill:#333;}</style></defs><title>graph</title><g id="Layer_2" data-name="Layer 2"><g id="Layer_1-2" data-name="Layer 1"><path class="cls-1" d="M409.6,204.8c0,113.1-91.7,204.8-204.8,204.8S0,317.91,0,204.8,91.69,0,204.8,0,409.6,91.69,409.6,204.8Zm0,0"/><path class="cls-1" d="M329.6,224l-48-51.2-48,101.8-96-50.6-96,96v8.5A204.45,204.45,0,0,0,204.8,409.6c113.1,0,204.8-91.7,204.8-204.8a203.79,203.79,0,0,0-25.36-98.72Zm0,0"/><path class="cls-2" d="M41.6,326.4a6.4,6.4,0,0,1-4.53-10.92l96-96a6.39,6.39,0,0,1,7.51-1.14l90.08,47.49,45.15-95.75a6.4,6.4,0,0,1,10.45-1.65l41.51,44.28,56.82-122.6a6.4,6.4,0,1,1,11.61,5.38l-60.8,131.2a6.39,6.39,0,0,1-10.47,1.69L283.38,184l-44,93.29a6.4,6.4,0,0,1-8.77,2.93l-91.82-48.4L46.13,324.52a6.39,6.39,0,0,1-4.53,1.88Zm0,0"/><path class="cls-3" d="M150.4,224a12.8,12.8,0,1,1-12.8-12.8A12.8,12.8,0,0,1,150.4,224Zm0,0"/><path class="cls-2" d="M137.6,211.2A12.8,12.8,0,1,1,124.8,224a12.8,12.8,0,0,1,12.8-12.8m0-6.4A19.2,19.2,0,1,0,156.8,224a19.22,19.22,0,0,0-19.2-19.2Zm0,0"/><path class="cls-3" d="M50.37,323.2a12.8,12.8,0,1,1-12.8-12.8,12.8,12.8,0,0,1,12.8,12.8Zm0,0"/><path class="cls-2" d="M37.57,310.4a12.8,12.8,0,1,1-12.8,12.8,12.8,12.8,0,0,1,12.8-12.8m0-6.4a19.2,19.2,0,1,0,19.2,19.2A19.22,19.22,0,0,0,37.57,304Zm0,0"/><path class="cls-3" d="M402.37,92.8A12.8,12.8,0,1,1,389.57,80a12.8,12.8,0,0,1,12.8,12.8Zm0,0"/><path class="cls-2" d="M389.57,80a12.8,12.8,0,1,1-12.8,12.8A12.79,12.79,0,0,1,389.57,80m0-6.4a19.2,19.2,0,1,0,19.2,19.2,19.22,19.22,0,0,0-19.2-19.2Zm0,0"/><path class="cls-3" d="M294.4,172.8A12.8,12.8,0,1,1,281.6,160a12.8,12.8,0,0,1,12.8,12.8Zm0,0"/><path class="cls-2" d="M281.6,160a12.8,12.8,0,1,1-12.8,12.8A12.79,12.79,0,0,1,281.6,160m0-6.4a19.2,19.2,0,1,0,19.2,19.2,19.22,19.22,0,0,0-19.2-19.2Zm0,0"/></g></g></svg>