<svg xmlns="http://www.w3.org/2000/svg" viewBox="0 0 71.92 84.93"><defs><style>.cls-1{fill:#efeeed;}.cls-2{fill:#313d40;}.cls-3{fill:#ee494a;}</style></defs><title>bitstop-logo-lockup</title><g id="Layer_2" data-name="Layer 2"><g id="Layer_1-2" data-name="Layer 1"><path class="cls-1" d="M36,10.11A32.36,32.36,0,1,0,68.31,42.46,32.4,32.4,0,0,0,36,10.11Z"/><path class="cls-2" d="M36,78.42a36,36,0,1,1,36-36A36,36,0,0,1,36,78.42Zm0-65.51A29.55,29.55,0,1,0,65.51,42.46,29.59,29.59,0,0,0,36,12.91Z"/><rect class="cls-2" x="26.19" width="6.52" height="13.06"/><rect class="cls-2" x="39.22" width="6.51" height="13.06"/><rect class="cls-2" x="26.19" y="71.87" width="6.52" height="13.06"/><rect class="cls-2" x="39.22" y="71.87" width="6.51" height="13.06"/><rect class="cls-3" x="23.56" y="27.55" width="3.73" height="3.73"/><rect class="cls-3" x="23.56" y="31.89" width="3.73" height="3.73"/><rect class="cls-3" x="23.56" y="36.22" width="3.73" height="3.73"/><rect class="cls-3" x="23.56" y="40.56" width="3.73" height="3.73"/><rect class="cls-3" x="23.56" y="44.89" width="3.73" height="3.73"/><rect class="cls-3" x="23.56" y="49.23" width="3.73" height="3.73"/><rect class="cls-3" x="23.56" y="53.56" width="3.73" height="3.73"/><rect class="cls-3" x="27.89" y="27.55" width="3.73" height="3.73"/><rect class="cls-3" x="27.89" y="31.89" width="3.73" height="3.73"/><rect class="cls-3" x="27.89" y="36.22" width="3.73" height="3.73"/><rect class="cls-3" x="27.89" y="40.56" width="3.73" height="3.73"/><rect class="cls-3" x="27.89" y="44.89" width="3.73" height="3.73"/><rect class="cls-3" x="27.89" y="49.23" width="3.73" height="3.73"/><rect class="cls-3" x="27.89" y="53.56" width="3.73" height="3.73"/><rect class="cls-3" x="32.23" y="27.55" width="3.73" height="3.73"/><rect class="cls-3" x="32.23" y="40.56" width="3.73" height="3.73"/><rect class="cls-3" x="32.23" y="53.56" width="3.73" height="3.73"/><rect class="cls-3" x="36.56" y="27.55" width="3.73" height="3.73"/><rect class="cls-3" x="36.56" y="40.56" width="3.73" height="3.73"/><rect class="cls-3" x="36.56" y="53.56" width="3.73" height="3.73"/><rect class="cls-3" x="40.9" y="27.55" width="3.73" height="3.73"/><rect class="cls-3" x="40.9" y="31.89" width="3.73" height="3.73"/><rect class="cls-3" x="40.9" y="36.22" width="3.73" height="3.73"/><rect class="cls-3" x="40.9" y="40.56" width="3.73" height="3.73"/><rect class="cls-3" x="40.9" y="44.89" width="3.73" height="3.73"/><rect class="cls-3" x="40.9" y="49.23" width="3.73" height="3.73"/><rect class="cls-3" x="40.9" y="53.56" width="3.73" height="3.73"/><rect class="cls-3" x="45.23" y="31.89" width="3.73" height="3.73"/><rect class="cls-3" x="45.23" y="36.22" width="3.73" height="3.73"/><rect class="cls-3" x="45.23" y="44.89" width="3.73" height="3.73"/><rect class="cls-3" x="45.23" y="49.23" width="3.73" height="3.73"/></g></g></svg>