<svg xmlns="http://www.w3.org/2000/svg" viewBox="0 0 409.6 409.6"><defs><style>.cls-1{fill:#ee494a;}.cls-2{fill:#ccc;}.cls-3{fill:#b3b3b3;}.cls-4{fill:#263740;}.cls-5{fill:#4ab8a1;}.cls-6{fill:#43a691;}.cls-7{fill:#cc584c;}.cls-8{fill:#bf5347;}.cls-9{fill:#fff;}.cls-10{fill:#f5f5f5;}</style></defs><title>calculator</title><g id="Layer_2" data-name="Layer 2"><g id="Layer_1-2" data-name="Layer 1"><path class="cls-1" d="M409.6,206.83c0,114.23-91.7,202.77-204.8,202.77S0,321.06,0,206.83,91.69,0,204.8,0,409.6,92.6,409.6,206.83Zm0,0"/><path class="cls-2" d="M319.58,92.8H89.18c-7,0-14.22,4.94-14.22,12V365.45A206.48,206.48,0,0,0,203.37,409.6c48.26,0,95.59-16.16,127.59-43.51V104.78c0-7-4.33-12-11.37-12Zm0,0"/><path class="cls-3" d="M319.58,92.8h-12.8c7,0,11.38,4.94,11.38,12V375.37A38.88,38.88,0,0,0,331,366.1V104.79c0-7-4.34-12-11.38-12Zm0,0"/><rect class="cls-4" x="100.56" y="124.8" width="198.4" height="83.2"/><path class="cls-5" d="M155,272a6.4,6.4,0,0,1-6.4,6.4H123a6.4,6.4,0,0,1-6.4-6.4V246.4A6.4,6.4,0,0,1,123,240h25.6a6.4,6.4,0,0,1,6.4,6.4Zm0,0"/><path class="cls-5" d="M155,336a6.4,6.4,0,0,1-6.4,6.4H123a6.4,6.4,0,0,1-6.4-6.4V310.4A6.4,6.4,0,0,1,123,304h25.6a6.4,6.4,0,0,1,6.4,6.4Zm0,0"/><path class="cls-5" d="M219,272a6.4,6.4,0,0,1-6.4,6.4H187a6.4,6.4,0,0,1-6.4-6.4V246.4A6.4,6.4,0,0,1,187,240h25.6a6.4,6.4,0,0,1,6.4,6.4Zm0,0"/><path class="cls-6" d="M214,239.18h-9.6a6.42,6.42,0,0,1,6.4,6.4v25.6a6.42,6.42,0,0,1-6.4,6.4H214a6.42,6.42,0,0,0,6.4-6.4v-25.6a6.42,6.42,0,0,0-6.4-6.4Zm0,0"/><path class="cls-6" d="M150,239.18h-9.6a6.42,6.42,0,0,1,6.4,6.4v25.6a6.42,6.42,0,0,1-6.4,6.4H150a6.42,6.42,0,0,0,6.4-6.4v-25.6a6.42,6.42,0,0,0-6.4-6.4Zm0,0"/><path class="cls-5" d="M219,336a6.4,6.4,0,0,1-6.4,6.4H187a6.4,6.4,0,0,1-6.4-6.4V310.4A6.4,6.4,0,0,1,187,304h25.6a6.4,6.4,0,0,1,6.4,6.4Zm0,0"/><path class="cls-6" d="M214,303.18h-9.6a6.42,6.42,0,0,1,6.4,6.4v25.6a6.42,6.42,0,0,1-6.4,6.4H214a6.42,6.42,0,0,0,6.4-6.4v-25.6a6.42,6.42,0,0,0-6.4-6.4Zm0,0"/><path class="cls-6" d="M150,303.18h-9.6a6.42,6.42,0,0,1,6.4,6.4v25.6a6.42,6.42,0,0,1-6.4,6.4H150a6.42,6.42,0,0,0,6.4-6.4v-25.6a6.42,6.42,0,0,0-6.4-6.4Zm0,0"/><path class="cls-7" d="M283,336a6.4,6.4,0,0,1-6.4,6.4H251a6.4,6.4,0,0,1-6.4-6.4V246.4A6.4,6.4,0,0,1,251,240h25.6a6.4,6.4,0,0,1,6.4,6.4Zm0,0"/><path class="cls-8" d="M278,239.18h-9.6a6.42,6.42,0,0,1,6.4,6.4v89.6a6.42,6.42,0,0,1-6.4,6.4H278a6.42,6.42,0,0,0,6.4-6.4v-89.6a6.42,6.42,0,0,0-6.4-6.4Zm0,0"/><path class="cls-9" d="M137.18,271.18A3.2,3.2,0,0,1,134,268v-19.2a3.2,3.2,0,0,1,6.4,0V268a3.2,3.2,0,0,1-3.2,3.2Zm0,0"/><path class="cls-9" d="M146.79,261.58h-19.2a3.2,3.2,0,1,1,0-6.4h19.2a3.2,3.2,0,0,1,0,6.4Zm0,0"/><path class="cls-9" d="M144,332.37a3.21,3.21,0,0,1-2.27-.94l-13.57-13.58a3.2,3.2,0,0,1,4.53-4.52l13.57,13.57a3.2,3.2,0,0,1-2.26,5.46Zm0,0"/><path class="cls-9" d="M130.4,332.37a3.2,3.2,0,0,1-2.26-5.46l13.57-13.57a3.2,3.2,0,0,1,4.53,4.52l-13.57,13.58a3.17,3.17,0,0,1-2.26.94Zm0,0"/><path class="cls-9" d="M210.78,261.58h-19.2a3.2,3.2,0,1,1,0-6.4h19.2a3.2,3.2,0,0,1,0,6.4Zm0,0"/><path class="cls-9" d="M274.78,287.18h-19.2a3.2,3.2,0,1,1,0-6.4h19.2a3.2,3.2,0,0,1,0,6.4Zm0,0"/><path class="cls-9" d="M274.78,303.18h-19.2a3.2,3.2,0,1,1,0-6.4h19.2a3.2,3.2,0,0,1,0,6.4Zm0,0"/><path class="cls-9" d="M210.78,325.58h-19.2a3.2,3.2,0,1,1,0-6.4h19.2a3.2,3.2,0,0,1,0,6.4Zm0,0"/><path class="cls-9" d="M201.19,316a3.19,3.19,0,0,1-2.27-5.44,3.32,3.32,0,0,1,4.55,0,3.23,3.23,0,0,1,.93,2.24,3.14,3.14,0,0,1-1,2.27,3.08,3.08,0,0,1-2.24.93Zm0,0"/><path class="cls-9" d="M201.19,335.17a3.25,3.25,0,0,1-2.27-.93A3.3,3.3,0,0,1,198,332a3.14,3.14,0,0,1,.93-2.24,3.31,3.31,0,0,1,4.51,0,3.23,3.23,0,0,1,1,2.27,3.14,3.14,0,0,1-1,2.27,3.08,3.08,0,0,1-2.24.93Zm0,0"/><path class="cls-10" d="M202.87,187.83l6.13-.68a4.44,4.44,0,0,0,1.17,2.77,3.48,3.48,0,0,0,2.5.9A4.08,4.08,0,0,0,216,189q1.38-1.8,1.76-7.49a7.56,7.56,0,0,1-6,2.77,8.94,8.94,0,0,1-6.73-3,11,11,0,0,1-2.83-7.84,11.12,11.12,0,0,1,3-8.11,10.81,10.81,0,0,1,15.86.81q3.22,3.9,3.22,12.79,0,9.08-3.36,13.08a10.85,10.85,0,0,1-8.75,4,9.24,9.24,0,0,1-6.26-2.07,10,10,0,0,1-3.07-6.17ZM217.21,174a7.22,7.22,0,0,0-1.41-4.75,4.14,4.14,0,0,0-3.26-1.69,3.66,3.66,0,0,0-2.92,1.39c-.77.92-1.16,2.44-1.16,4.54a7.19,7.19,0,0,0,1.27,4.7,4,4,0,0,0,6.23.06,6.33,6.33,0,0,0,1.25-4.25Zm0,0"/><path class="cls-10" d="M240.84,195.47v-6.65H227.3v-5.54l14.34-21H247v21h4.11v5.57H247v6.65Zm0-12.22V172l-7.6,11.29Zm0,0"/><path class="cls-10" d="M270.31,195.47H264V171.59a21.83,21.83,0,0,1-8.19,4.8v-5.75a18.2,18.2,0,0,0,5.39-3.08,11.67,11.67,0,0,0,4-5.29h5.14Zm0,0"/><rect class="cls-10" x="281.13" y="189.14" width="6.34" height="6.33"/></g></g></svg>