<svg xmlns="http://www.w3.org/2000/svg" viewBox="0 0 307.13 95.25"><defs><style>.cls-1{fill:#313d40;}.cls-2{fill:#efeeed;}.cls-3{fill:#ee494a;}</style></defs><title>powered_by_bitstop</title><g id="Layer_2" data-name="Layer 2"><g id="powerd_by" data-name="powerd by"><path class="cls-1" d="M109.94,9.3a.25.25,0,0,1-.26.26H108a.25.25,0,0,1-.26-.26V.46A.25.25,0,0,1,108,.21h3.28a3,3,0,0,1,3.35,3,3.15,3.15,0,0,1-3.15,3.09h-1.58Zm1.52-5a1.06,1.06,0,0,0,1.09-1.07,1,1,0,0,0-1.14-1.06h-1.47V4.32Z"/><path class="cls-1" d="M125.7,4.87c0,2-1,4.8-4.56,4.8s-4.55-2.83-4.55-4.8,1-4.79,4.55-4.79S125.7,3,125.7,4.87Zm-2.18,0c0-.69-.3-2.75-2.38-2.75s-2.4,2.07-2.4,2.75.3,2.77,2.4,2.77S123.52,5.55,123.52,4.87Z"/><path class="cls-1" d="M131.54,5.28,133.76.19a.31.31,0,0,1,.58,0l2.23,5.09L138.64.45A.4.4,0,0,1,139,.21h1.86a.17.17,0,0,1,.14.24l-4.16,9.08a.28.28,0,0,1-.51,0l-2.29-5.14-2.31,5.14a.28.28,0,0,1-.51,0L127.09.45a.16.16,0,0,1,.14-.24h1.86a.37.37,0,0,1,.35.24Z"/><path class="cls-1" d="M144.85,5.91V7.54h4a.25.25,0,0,1,.26.26V9.3a.25.25,0,0,1-.26.26H143a.25.25,0,0,1-.26-.26V.46A.25.25,0,0,1,143,.21h5.87a.25.25,0,0,1,.26.26V2a.25.25,0,0,1-.26.26h-4V3.89h3.06a.25.25,0,0,1,.26.26v1.5a.25.25,0,0,1-.26.26Z"/><path class="cls-1" d="M153.47,9.3a.25.25,0,0,1-.26.26h-1.63a.25.25,0,0,1-.26-.26V.46a.25.25,0,0,1,.26-.26h3.28a3,3,0,0,1,3.34,3A3.07,3.07,0,0,1,156.5,6l1.58,3.35a.16.16,0,0,1-.14.22H156.1a.37.37,0,0,1-.35-.24l-1.31-3h-1Zm1.52-5a1.06,1.06,0,0,0,1.09-1.07,1,1,0,0,0-1.14-1.06h-1.47V4.32Z"/><path class="cls-1" d="M162.59,5.91V7.54h4a.25.25,0,0,1,.26.26V9.3a.25.25,0,0,1-.26.26H160.7a.25.25,0,0,1-.26-.26V.46a.25.25,0,0,1,.26-.26h5.88a.25.25,0,0,1,.26.26V2a.25.25,0,0,1-.26.26h-4V3.89h3.06a.25.25,0,0,1,.26.26v1.5a.25.25,0,0,1-.26.26Z"/><path class="cls-1" d="M169.33,9.56a.25.25,0,0,1-.26-.26V.46a.25.25,0,0,1,.26-.26h3.07A4.35,4.35,0,0,1,177,4.82c0,2-1.07,4.74-4.56,4.74Zm3.07-2c2.08,0,2.38-2,2.38-2.72a2.43,2.43,0,0,0-2.38-2.62h-1.18V7.54Z"/><path class="cls-1" d="M190.82,6.72c0,1.23-.75,2.83-3.31,2.83h-3.25A.25.25,0,0,1,184,9.3V.46a.25.25,0,0,1,.26-.26h3.25c2.56,0,3.28,1.44,3.28,2.82a2.55,2.55,0,0,1-.91,1.82A2.3,2.3,0,0,1,190.82,6.72ZM188.64,3a.9.9,0,0,0-1-.85h-1.5V4h1.55A.91.91,0,0,0,188.64,3Zm0,3.68c0-.34-.13-.88-1-.9h-1.55V7.55h1.5C188.51,7.55,188.64,6.92,188.64,6.72Z"/><path class="cls-1" d="M197.12,9.3a.25.25,0,0,1-.26.26h-1.65A.25.25,0,0,1,195,9.3V5.44l-3.06-5A.15.15,0,0,1,192,.21h2a.43.43,0,0,1,.38.22l1.65,3,1.7-3a.43.43,0,0,1,.38-.22h2a.15.15,0,0,1,.13.22l-3.06,5Z"/><g id="logo-w"><path class="cls-2" d="M42.58,29A20.48,20.48,0,1,0,63.05,49.51,20.5,20.5,0,0,0,42.58,29Z"/><path class="cls-1" d="M42.58,72.27A22.76,22.76,0,1,1,65.34,49.51,22.78,22.78,0,0,1,42.58,72.27Zm0-41.46a18.7,18.7,0,1,0,18.7,18.7A18.72,18.72,0,0,0,42.58,30.81Z"/><rect class="cls-1" x="36.39" y="22.64" width="4.12" height="8.26"/><rect class="cls-1" x="44.64" y="22.64" width="4.12" height="8.26"/><rect class="cls-1" x="36.39" y="68.12" width="4.12" height="8.26"/><rect class="cls-1" x="44.64" y="68.12" width="4.12" height="8.26"/><path class="cls-1" d="M81.63,36.13H93c5.5,0,8.58,3.32,8.58,7.31,0,2.62-1.6,4.4-4.16,5.19,4,.91,6,3.49,6,7,0,5-3.73,8.72-9.88,8.72H81.63ZM92.38,46.55c2,0,3.25-1,3.25-2.66s-1.08-2.66-2.95-2.66h-5v5.32Zm.91,12.71a3.73,3.73,0,0,0,4-3.9c0-2.28-1.6-3.86-4.38-3.86H87.7v7.77Z"/><path class="cls-1" d="M114.71,36.13h6.07V64.37h-6.07Z"/><path class="cls-1" d="M140.24,41.23h-8.41V36.13h22.89v5.11H146.3V64.37h-6.07Z"/><path class="cls-2" d="M162.91,58.8l4.94-2.74a6.64,6.64,0,0,0,6,3.53c2.51,0,4.12-1.2,4.12-2.87,0-2-1.65-2.7-4.42-3.86L172,52.24c-4.38-1.79-7.28-4-7.28-8.76,0-4.36,3.47-7.68,8.89-7.68,3.86,0,6.63,1.29,8.63,4.65l-4.72,2.91c-1-1.79-2.17-2.49-3.9-2.49s-2.9,1.08-2.9,2.49c0,1.74,1.13,2.45,3.73,3.53l1.52.62c5.16,2.12,8.06,4.28,8.06,9.14,0,5.23-4.29,8.1-10.06,8.1S164.68,62.17,162.91,58.8Z"/><path class="cls-2" d="M201.09,41.23h-8.41V36.13h22.89v5.11h-8.41V64.37h-6.07Z"/><path class="cls-2" d="M223.81,50.25c0-8.35,6.76-14.49,15.26-14.49s15.26,6.15,15.26,14.49-6.76,14.5-15.26,14.5S223.81,58.59,223.81,50.25Zm24.28,0c0-5.27-3.64-9.3-9-9.3s-9,4-9,9.3,3.64,9.3,9,9.3S248.08,55.52,248.08,50.25Z"/><path class="cls-2" d="M266,36.13h8.15c8.24,0,13.18,4.11,13.18,10.92s-5,10.88-13.18,10.88h-2.08v6.44H266Zm8,16.69c4.94,0,7.11-1.91,7.11-5.77s-2.25-5.81-7.11-5.81h-1.91V52.82Z"/><rect class="cls-3" x="34.73" y="40.07" width="2.36" height="2.36"/><rect class="cls-3" x="34.73" y="42.82" width="2.36" height="2.36"/><rect class="cls-3" x="34.73" y="45.56" width="2.36" height="2.36"/><rect class="cls-3" x="34.73" y="48.3" width="2.36" height="2.36"/><rect class="cls-3" x="34.73" y="51.05" width="2.36" height="2.36"/><rect class="cls-3" x="34.73" y="53.79" width="2.36" height="2.36"/><rect class="cls-3" x="34.73" y="56.53" width="2.36" height="2.36"/><rect class="cls-3" x="37.47" y="40.07" width="2.36" height="2.36"/><rect class="cls-3" x="37.47" y="42.82" width="2.36" height="2.36"/><rect class="cls-3" x="37.47" y="45.56" width="2.36" height="2.36"/><rect class="cls-3" x="37.47" y="48.3" width="2.36" height="2.36"/><rect class="cls-3" x="37.47" y="51.05" width="2.36" height="2.36"/><rect class="cls-3" x="37.47" y="53.79" width="2.36" height="2.36"/><rect class="cls-3" x="37.47" y="56.53" width="2.36" height="2.36"/><rect class="cls-3" x="40.22" y="40.07" width="2.36" height="2.36"/><rect class="cls-3" x="40.22" y="48.3" width="2.36" height="2.36"/><rect class="cls-3" x="40.22" y="56.53" width="2.36" height="2.36"/><rect class="cls-3" x="42.96" y="40.07" width="2.36" height="2.36"/><rect class="cls-3" x="42.96" y="48.3" width="2.36" height="2.36"/><rect class="cls-3" x="42.96" y="56.53" width="2.36" height="2.36"/><rect class="cls-3" x="45.7" y="40.07" width="2.36" height="2.36"/><rect class="cls-3" x="45.7" y="42.82" width="2.36" height="2.36"/><rect class="cls-3" x="45.7" y="45.56" width="2.36" height="2.36"/><rect class="cls-3" x="45.7" y="48.3" width="2.36" height="2.36"/><rect class="cls-3" x="45.7" y="51.05" width="2.36" height="2.36"/><rect class="cls-3" x="45.7" y="53.79" width="2.36" height="2.36"/><rect class="cls-3" x="45.7" y="56.53" width="2.36" height="2.36"/><rect class="cls-3" x="48.45" y="42.82" width="2.36" height="2.36"/><rect class="cls-3" x="48.45" y="45.56" width="2.36" height="2.36"/><rect class="cls-3" x="48.45" y="51.05" width="2.36" height="2.36"/><rect class="cls-3" x="48.45" y="53.79" width="2.36" height="2.36"/></g><path class="cls-1" d="M294.13,3.78h-92.2v2h92.2a11,11,0,0,1,11,11V82.25a11,11,0,0,1-11,11H13a11,11,0,0,1-11-11V16.78a11,11,0,0,1,11-11h92.2v-2H13a13,13,0,0,0-13,13V82.25a13,13,0,0,0,13,13H294.13a13,13,0,0,0,13-13V16.78A13,13,0,0,0,294.13,3.78Z"/></g></g></svg>